<mxfile host="app.diagrams.net" modified="2020-12-30T19:12:27.882Z" agent="5.0 (Windows NT 10.0; Win64; x64) AppleWebKit/537.36 (KHTML, like Gecko) Chrome/87.0.4280.88 Safari/537.36" etag="RrO0YGEE2fpIKhXrTZtU" version="14.1.3" type="github" pages="4">
  <diagram id="JHjxl6rXeeptxG1DzDIu" name="Notations">
    <mxGraphModel dx="2234" dy="1151" grid="1" gridSize="10" guides="1" tooltips="1" connect="1" arrows="1" fold="1" page="1" pageScale="1" pageWidth="827" pageHeight="1169" math="0" shadow="0">
      <root>
        <mxCell id="0" />
        <mxCell id="1" parent="0" />
        <object label="" placeholders="1" instruction="edit data of the lower shape within the group" id="EEX_0Q887EEma1IbuaZT-1">
          <mxCell style="group;resizable=0;" parent="1" vertex="1" connectable="0">
            <mxGeometry x="80" y="120" width="160" height="170" as="geometry" />
          </mxCell>
        </object>
        <object label="&lt;div style=&quot;color: rgb(255 , 255 , 255) ; white-space: normal&quot;&gt;&lt;span style=&quot;font-size: 14px&quot;&gt;&lt;b&gt;%name%&lt;/b&gt;&lt;/span&gt;&lt;/div&gt;&lt;div style=&quot;color: rgb(255 , 255 , 255) ; white-space: normal&quot;&gt;&lt;font style=&quot;font-size: 8px&quot;&gt;[Person]&lt;/font&gt;&lt;/div&gt;&lt;div style=&quot;color: rgb(255 , 255 , 255) ; white-space: normal ; font-size: 8px&quot;&gt;&lt;span style=&quot;font-size: x-small&quot;&gt;&lt;br&gt;&lt;/span&gt;&lt;/div&gt;&lt;div style=&quot;color: rgb(255 , 255 , 255) ; white-space: normal&quot;&gt;&lt;font size=&quot;1&quot;&gt;%description%&lt;/font&gt;&lt;/div&gt;" name="Actor Name" description="Description" placeholders="1" id="EEX_0Q887EEma1IbuaZT-2">
          <mxCell style="rounded=1;whiteSpace=wrap;html=1;strokeColor=#00315C;fillColor=#004179;fontColor=#000000;arcSize=31;" parent="EEX_0Q887EEma1IbuaZT-1" vertex="1">
            <mxGeometry y="70" width="160" height="100" as="geometry" />
          </mxCell>
        </object>
        <mxCell id="EEX_0Q887EEma1IbuaZT-3" value="" style="ellipse;whiteSpace=wrap;html=1;aspect=fixed;strokeColor=#00315C;fillColor=#004179;fontColor=#000000;" parent="EEX_0Q887EEma1IbuaZT-1" vertex="1">
          <mxGeometry x="40" width="80" height="80" as="geometry" />
        </mxCell>
        <object label="&lt;font style=&quot;font-size: 10px&quot;&gt;&lt;b&gt;%name%&lt;/b&gt;&lt;br style=&quot;font-size: 10px&quot;&gt;[Software System]&lt;/font&gt;" placeholders="1" name="Software System Name" id="EEX_0Q887EEma1IbuaZT-4">
          <mxCell style="rounded=0;whiteSpace=wrap;html=1;strokeColor=#828282;fillColor=none;fontColor=#000000;align=left;labelPosition=center;verticalLabelPosition=middle;verticalAlign=bottom;dashed=1;strokeWidth=1;perimeterSpacing=0;spacing=2;spacingTop=0;fontSize=10;dashPattern=8 8;" parent="1" vertex="1">
            <mxGeometry x="310" y="130" width="200" height="370" as="geometry" />
          </mxCell>
        </object>
        <object label="&lt;div style=&quot;color: rgb(255 , 255 , 255) ; white-space: normal&quot;&gt;&lt;span style=&quot;font-size: 14px&quot;&gt;&lt;b&gt;%name%&lt;/b&gt;&lt;/span&gt;&lt;/div&gt;&lt;div style=&quot;color: rgb(255 , 255 , 255) ; font-size: 12px ; white-space: normal&quot;&gt;&lt;font style=&quot;font-size: 8px&quot;&gt;[Container: %technology%]&lt;/font&gt;&lt;/div&gt;&lt;div style=&quot;color: rgb(255 , 255 , 255) ; white-space: normal ; font-size: 8px&quot;&gt;&lt;font style=&quot;line-height: 9.6px&quot;&gt;&lt;br&gt;&lt;/font&gt;&lt;/div&gt;&lt;div style=&quot;color: rgb(255 , 255 , 255) ; white-space: normal&quot;&gt;%description%&lt;/div&gt;" placeholders="1" name="Container Name" description="Description" technology="e.g. PostgreSQL" id="EEX_0Q887EEma1IbuaZT-5">
          <mxCell style="shape=cylinder;whiteSpace=wrap;html=1;boundedLbl=1;backgroundOutline=1;strokeColor=#2F6FA6;strokeWidth=1;fillColor=#3B8CD2;fontSize=9;fontColor=#000000;align=center;resizable=0;" parent="1" vertex="1">
            <mxGeometry x="310" y="650" width="180" height="120" as="geometry" />
          </mxCell>
        </object>
        <object label="&lt;b&gt;%name%&lt;/b&gt;&lt;br style=&quot;font-size: 10px&quot;&gt;[%technology%]" placeholders="1" name="Dependency Operation Name" technology="JDBC" id="EEX_0Q887EEma1IbuaZT-6">
          <mxCell style="endArrow=block;html=1;fontSize=10;fontColor=#404040;strokeWidth=1;endFill=1;dashed=1;dashPattern=8 8;strokeColor=#828282;elbow=vertical;" parent="1" edge="1">
            <mxGeometry width="50" height="50" relative="1" as="geometry">
              <mxPoint x="310" y="570" as="sourcePoint" />
              <mxPoint x="510" y="570" as="targetPoint" />
            </mxGeometry>
          </mxCell>
        </object>
        <object label="&lt;span style=&quot;font-size: 10px&quot;&gt;&lt;b&gt;%name%&lt;/b&gt;&lt;br&gt;[%technology%]&lt;br&gt;&lt;/span&gt;" placeholders="1" name="Data Flow Item Name" technology="HTTP" id="EEX_0Q887EEma1IbuaZT-7">
          <mxCell style="endArrow=block;html=1;fontSize=10;fontColor=#404040;strokeWidth=1;endFill=1;strokeColor=#828282;elbow=vertical;" parent="1" edge="1">
            <mxGeometry width="50" height="50" relative="1" as="geometry">
              <mxPoint x="310" y="609.5" as="sourcePoint" />
              <mxPoint x="510" y="609.5" as="targetPoint" />
            </mxGeometry>
          </mxCell>
        </object>
        <object label="%name%&lt;br style=&quot;font-size: 10px&quot;&gt;&lt;font size=&quot;1&quot;&gt;&lt;span style=&quot;font-weight: 400&quot;&gt;%description%&lt;/span&gt;&lt;/font&gt;" placeholders="1" name="Diagram Name" description="Description" id="EEX_0Q887EEma1IbuaZT-8">
          <mxCell style="text;html=1;resizable=0;points=[];autosize=1;align=left;verticalAlign=top;spacingTop=-4;fontSize=14;fontColor=#404040;fontStyle=1" parent="1" vertex="1">
            <mxGeometry x="70" y="970" width="110" height="40" as="geometry" />
          </mxCell>
        </object>
        <object label="&lt;div&gt;&lt;span style=&quot;font-size: 14px&quot;&gt;&lt;b&gt;%name%&lt;/b&gt;&lt;/span&gt;&lt;/div&gt;&lt;div&gt;&lt;span style=&quot;font-size: 8px&quot;&gt;[Software System&lt;/span&gt;&lt;span style=&quot;font-size: 8px&quot;&gt;]&lt;/span&gt;&lt;/div&gt;&lt;div&gt;&lt;span style=&quot;font-size: 8px&quot;&gt;&lt;br&gt;&lt;/span&gt;&lt;/div&gt;&lt;div&gt;&lt;font size=&quot;1&quot;&gt;%description%&lt;/font&gt;&lt;/div&gt;" placeholders="1" name="External System Name" description="Description of Software System" id="EEX_0Q887EEma1IbuaZT-9">
          <mxCell style="rounded=0;whiteSpace=wrap;html=1;fillColor=#999999;fontColor=#FFFFFF;strokeColor=#828282;resizable=0;" parent="1" vertex="1">
            <mxGeometry x="70" y="330" width="180" height="120" as="geometry" />
          </mxCell>
        </object>
        <object label="&lt;div&gt;&lt;span style=&quot;font-size: 14px&quot;&gt;&lt;b&gt;%name%&lt;/b&gt;&lt;/span&gt;&lt;/div&gt;&lt;div&gt;&lt;span style=&quot;font-size: 8px&quot;&gt;[Software System]&lt;/span&gt;&lt;/div&gt;&lt;div&gt;&lt;span style=&quot;font-size: 8px&quot;&gt;&lt;br&gt;&lt;/span&gt;&lt;/div&gt;&lt;div&gt;&lt;font size=&quot;1&quot;&gt;%description%&lt;/font&gt;&lt;/div&gt;" placeholders="1" name="Software System Name" description="Description" id="EEX_0Q887EEma1IbuaZT-10">
          <mxCell style="rounded=0;whiteSpace=wrap;html=1;fillColor=#0067BA;fontColor=#FFFFFF;strokeColor=#005DA8;resizable=0;" parent="1" vertex="1">
            <mxGeometry x="70" y="490" width="180" height="120" as="geometry" />
          </mxCell>
        </object>
        <object label="&lt;div&gt;&lt;span style=&quot;font-size: 14px&quot;&gt;&lt;b&gt;%name%&lt;/b&gt;&lt;/span&gt;&lt;/div&gt;&lt;div&gt;&lt;span style=&quot;font-size: 8px&quot;&gt;[Container: %technology%]&lt;/span&gt;&lt;/div&gt;&lt;div&gt;&lt;span style=&quot;font-size: 8px&quot;&gt;&lt;br&gt;&lt;/span&gt;&lt;/div&gt;&lt;div&gt;&lt;font size=&quot;1&quot;&gt;%description%&lt;/font&gt;&lt;/div&gt;" placeholders="1" name="Container Name" technology="e.g. Python, Flask" description="Description" id="EEX_0Q887EEma1IbuaZT-11">
          <mxCell style="rounded=0;whiteSpace=wrap;html=1;fillColor=#3B8CD2;fontColor=#FFFFFF;strokeColor=#2F6FA6;resizable=0;" parent="1" vertex="1">
            <mxGeometry x="70" y="650" width="180" height="120" as="geometry" />
          </mxCell>
        </object>
        <object label="&lt;div&gt;&lt;span style=&quot;font-size: 14px&quot;&gt;&lt;b&gt;%name%&lt;/b&gt;&lt;/span&gt;&lt;/div&gt;&lt;div&gt;&lt;span style=&quot;font-size: 8px&quot;&gt;[Component: %technology%]&lt;/span&gt;&lt;/div&gt;&lt;div&gt;&lt;span style=&quot;font-size: 8px&quot;&gt;&lt;br&gt;&lt;/span&gt;&lt;/div&gt;&lt;div&gt;&lt;font size=&quot;1&quot;&gt;%description%&lt;/font&gt;&lt;/div&gt;" placeholders="1" name="Component Name" technology="e.g. Spring Bean" description="Description" id="EEX_0Q887EEma1IbuaZT-12">
          <mxCell style="rounded=0;whiteSpace=wrap;html=1;fillColor=#85baf0;fontColor=#000000;strokeColor=#6992BD;resizable=0;" parent="1" vertex="1">
            <mxGeometry x="70" y="810" width="180" height="120" as="geometry" />
          </mxCell>
        </object>
        <object label="&lt;font style=&quot;font-size: 10px&quot;&gt;&lt;b&gt;%name%&lt;/b&gt;&lt;br style=&quot;font-size: 10px&quot;&gt;[Container]&lt;/font&gt;" placeholders="1" name="Container Name" id="EEX_0Q887EEma1IbuaZT-13">
          <mxCell style="rounded=0;whiteSpace=wrap;html=1;strokeColor=#828282;fillColor=none;fontColor=#000000;align=left;labelPosition=center;verticalLabelPosition=middle;verticalAlign=bottom;dashed=1;strokeWidth=1;perimeterSpacing=0;spacing=2;spacingTop=0;fontSize=10;dashPattern=8 8;container=0;" parent="1" vertex="1">
            <mxGeometry x="550" y="130" width="200" height="370" as="geometry">
              <mxRectangle x="560" y="40" width="110" height="30" as="alternateBounds" />
            </mxGeometry>
          </mxCell>
        </object>
        <object label="&lt;font style=&quot;font-size: 10px&quot;&gt;&lt;b&gt;%name%&lt;/b&gt;&lt;br style=&quot;font-size: 10px&quot;&gt;[Domain]&lt;/font&gt;" placeholders="1" name="Domain Name" id="EEX_0Q887EEma1IbuaZT-14">
          <mxCell style="rounded=0;whiteSpace=wrap;html=1;strokeColor=#828282;fillColor=none;fontColor=#000000;align=left;labelPosition=center;verticalLabelPosition=middle;verticalAlign=bottom;dashed=1;strokeWidth=1;perimeterSpacing=0;spacing=2;spacingTop=0;fontSize=10;dashPattern=8 8;" parent="1" vertex="1">
            <mxGeometry x="550" y="570" width="200" height="370" as="geometry" />
          </mxCell>
        </object>
        <object label="" placeholders="1" instruction="edit data of the lower shape within the group" id="EEX_0Q887EEma1IbuaZT-15">
          <mxCell style="group;resizable=0;" parent="1" vertex="1" connectable="0">
            <mxGeometry x="320" y="810" width="160" height="170" as="geometry" />
          </mxCell>
        </object>
        <object label="&lt;div style=&quot;color: rgb(255 , 255 , 255) ; white-space: normal&quot;&gt;&lt;span style=&quot;font-size: 14px&quot;&gt;&lt;b&gt;%name%&lt;/b&gt;&lt;/span&gt;&lt;/div&gt;&lt;div style=&quot;color: rgb(255 , 255 , 255) ; white-space: normal&quot;&gt;&lt;font style=&quot;font-size: 8px&quot;&gt;[Person]&lt;/font&gt;&lt;/div&gt;&lt;div style=&quot;color: rgb(255 , 255 , 255) ; white-space: normal ; font-size: 8px&quot;&gt;&lt;span style=&quot;font-size: x-small&quot;&gt;&lt;br&gt;&lt;/span&gt;&lt;/div&gt;&lt;div style=&quot;color: rgb(255 , 255 , 255) ; white-space: normal&quot;&gt;&lt;font size=&quot;1&quot;&gt;%description%&lt;/font&gt;&lt;/div&gt;" name="External Actor Name" description="Description" placeholders="1" id="EEX_0Q887EEma1IbuaZT-16">
          <mxCell style="rounded=1;whiteSpace=wrap;html=1;strokeColor=#828282;fillColor=#999999;fontColor=#000000;arcSize=31;" parent="EEX_0Q887EEma1IbuaZT-15" vertex="1">
            <mxGeometry y="70" width="160" height="100" as="geometry" />
          </mxCell>
        </object>
        <mxCell id="EEX_0Q887EEma1IbuaZT-17" value="" style="ellipse;whiteSpace=wrap;html=1;aspect=fixed;strokeColor=#828282;fillColor=#999999;fontColor=#000000;" parent="EEX_0Q887EEma1IbuaZT-15" vertex="1">
          <mxGeometry x="40" width="80" height="80" as="geometry" />
        </mxCell>
        <mxCell id="GZejR7J3XuNiui_2Sxh8-1" value="Notations of the C4 diagram" style="text;strokeColor=none;fillColor=none;html=1;fontSize=24;fontStyle=1;verticalAlign=middle;align=center;" vertex="1" parent="1">
          <mxGeometry x="40" y="1070" width="700" height="60" as="geometry" />
        </mxCell>
      </root>
    </mxGraphModel>
  </diagram>
  <diagram name="Level 1: System Context diagram" id="p6R25LpL6rDu1TVQxqPX">
    <mxGraphModel dx="1955" dy="1008" grid="1" gridSize="10" guides="1" tooltips="1" connect="1" arrows="1" fold="1" page="1" pageScale="1" pageWidth="827" pageHeight="1169" math="0" shadow="0">
      <root>
        <mxCell id="e1K1VD6MmtJ3X1J_XKfh-0" />
        <mxCell id="e1K1VD6MmtJ3X1J_XKfh-1" parent="e1K1VD6MmtJ3X1J_XKfh-0" />
        <object label="" placeholders="1" instruction="edit data of the lower shape within the group" id="3fenQZD7WvJW-FzGtks1-0">
          <mxCell style="group;resizable=0;" parent="e1K1VD6MmtJ3X1J_XKfh-1" vertex="1" connectable="0">
            <mxGeometry x="546" y="150" width="160" height="170" as="geometry" />
          </mxCell>
        </object>
        <object label="&lt;div style=&quot;color: rgb(255 , 255 , 255) ; white-space: normal&quot;&gt;&lt;span style=&quot;font-size: 14px&quot;&gt;&lt;b&gt;Fan&lt;/b&gt;&lt;/span&gt;&lt;/div&gt;&lt;div style=&quot;color: rgb(255 , 255 , 255) ; white-space: normal&quot;&gt;&lt;span style=&quot;font-size: 8px&quot;&gt;[Person]&lt;/span&gt;&lt;br&gt;&lt;/div&gt;&lt;div style=&quot;color: rgb(255 , 255 , 255) ; white-space: normal ; font-size: 8px&quot;&gt;&lt;span style=&quot;font-size: x-small&quot;&gt;&lt;br&gt;&lt;/span&gt;&lt;/div&gt;&lt;div style=&quot;color: rgb(255 , 255 , 255) ; white-space: normal&quot;&gt;&lt;font size=&quot;1&quot;&gt;A fan of ice hockey&lt;/font&gt;&lt;/div&gt;" name="Actor Name" description="Description" placeholders="1" id="3fenQZD7WvJW-FzGtks1-1">
          <mxCell style="rounded=1;whiteSpace=wrap;html=1;strokeColor=#00315C;fillColor=#004179;fontColor=#000000;arcSize=31;" parent="3fenQZD7WvJW-FzGtks1-0" vertex="1">
            <mxGeometry y="70" width="160" height="100" as="geometry" />
          </mxCell>
        </object>
        <mxCell id="3fenQZD7WvJW-FzGtks1-2" value="" style="ellipse;whiteSpace=wrap;html=1;aspect=fixed;strokeColor=#00315C;fillColor=#004179;fontColor=#000000;" parent="3fenQZD7WvJW-FzGtks1-0" vertex="1">
          <mxGeometry x="40" width="80" height="80" as="geometry" />
        </mxCell>
        <object label="" placeholders="1" instruction="edit data of the lower shape within the group" id="3fenQZD7WvJW-FzGtks1-3">
          <mxCell style="group;resizable=0;" parent="e1K1VD6MmtJ3X1J_XKfh-1" vertex="1" connectable="0">
            <mxGeometry x="126" y="150" width="160" height="170" as="geometry" />
          </mxCell>
        </object>
        <object label="&lt;div style=&quot;color: rgb(255 , 255 , 255) ; white-space: normal&quot;&gt;&lt;span style=&quot;font-size: 14px&quot;&gt;&lt;b&gt;Manager&lt;/b&gt;&lt;/span&gt;&lt;/div&gt;&lt;div style=&quot;color: rgb(255 , 255 , 255) ; white-space: normal&quot;&gt;&lt;span style=&quot;font-size: 8px&quot;&gt;[Person]&lt;/span&gt;&lt;br&gt;&lt;/div&gt;&lt;div style=&quot;color: rgb(255 , 255 , 255) ; white-space: normal ; font-size: 8px&quot;&gt;&lt;span style=&quot;font-size: x-small&quot;&gt;&lt;br&gt;&lt;/span&gt;&lt;/div&gt;&lt;div style=&quot;color: rgb(255 , 255 , 255) ; white-space: normal&quot;&gt;&lt;font size=&quot;1&quot;&gt;A sports manager of an ice hockey team&lt;/font&gt;&lt;/div&gt;" name="Actor Name" description="Description" placeholders="1" id="3fenQZD7WvJW-FzGtks1-4">
          <mxCell style="rounded=1;whiteSpace=wrap;html=1;strokeColor=#00315C;fillColor=#004179;fontColor=#000000;arcSize=31;" parent="3fenQZD7WvJW-FzGtks1-3" vertex="1">
            <mxGeometry y="70" width="160" height="100" as="geometry" />
          </mxCell>
        </object>
        <mxCell id="3fenQZD7WvJW-FzGtks1-5" value="" style="ellipse;whiteSpace=wrap;html=1;aspect=fixed;strokeColor=#00315C;fillColor=#004179;fontColor=#000000;" parent="3fenQZD7WvJW-FzGtks1-3" vertex="1">
          <mxGeometry x="40" width="80" height="80" as="geometry" />
        </mxCell>
        <object label="" placeholders="1" instruction="edit data of the lower shape within the group" id="3fenQZD7WvJW-FzGtks1-6">
          <mxCell style="group;resizable=0;" parent="e1K1VD6MmtJ3X1J_XKfh-1" vertex="1" connectable="0">
            <mxGeometry x="330" y="150" width="160" height="170" as="geometry" />
          </mxCell>
        </object>
        <object label="&lt;div style=&quot;color: rgb(255 , 255 , 255) ; white-space: normal&quot;&gt;&lt;span style=&quot;font-size: 14px&quot;&gt;&lt;b&gt;Athlete&lt;/b&gt;&lt;/span&gt;&lt;/div&gt;&lt;div style=&quot;color: rgb(255 , 255 , 255) ; white-space: normal&quot;&gt;&lt;span style=&quot;font-size: 8px&quot;&gt;[Person]&lt;/span&gt;&lt;br&gt;&lt;/div&gt;&lt;div style=&quot;color: rgb(255 , 255 , 255) ; white-space: normal ; font-size: 8px&quot;&gt;&lt;span style=&quot;font-size: x-small&quot;&gt;&lt;br&gt;&lt;/span&gt;&lt;/div&gt;&lt;div style=&quot;color: rgb(255 , 255 , 255) ; white-space: normal&quot;&gt;&lt;font size=&quot;1&quot;&gt;A hockey player&lt;/font&gt;&lt;/div&gt;" name="Actor Name" description="Description" placeholders="1" id="3fenQZD7WvJW-FzGtks1-7">
          <mxCell style="rounded=1;whiteSpace=wrap;html=1;strokeColor=#00315C;fillColor=#004179;fontColor=#000000;arcSize=31;" parent="3fenQZD7WvJW-FzGtks1-6" vertex="1">
            <mxGeometry y="70" width="160" height="100" as="geometry" />
          </mxCell>
        </object>
        <mxCell id="3fenQZD7WvJW-FzGtks1-8" value="" style="ellipse;whiteSpace=wrap;html=1;aspect=fixed;strokeColor=#00315C;fillColor=#004179;fontColor=#000000;" parent="3fenQZD7WvJW-FzGtks1-6" vertex="1">
          <mxGeometry x="40" width="80" height="80" as="geometry" />
        </mxCell>
        <object label="&lt;div&gt;&lt;span style=&quot;font-size: 14px&quot;&gt;&lt;b&gt;Sticks&#39;n&#39;pucks&lt;/b&gt;&lt;/span&gt;&lt;/div&gt;&lt;div&gt;&lt;span style=&quot;font-size: 8px&quot;&gt;[Software System]&lt;/span&gt;&lt;br&gt;&lt;/div&gt;&lt;div&gt;&lt;span style=&quot;font-size: 8px&quot;&gt;&lt;br&gt;&lt;/span&gt;&lt;/div&gt;&lt;div&gt;&lt;font size=&quot;1&quot;&gt;Allows user to manage all parts of hockey teams - create teams, players, be informed about game/team/player statistics&lt;/font&gt;&lt;/div&gt;" placeholders="1" name="Software System Name" description="Description" id="UrCyRtBjpqI_1yXkmizs-0">
          <mxCell style="rounded=0;whiteSpace=wrap;html=1;fillColor=#0067BA;fontColor=#FFFFFF;strokeColor=#005DA8;resizable=0;" parent="e1K1VD6MmtJ3X1J_XKfh-1" vertex="1">
            <mxGeometry x="316" y="500" width="180" height="120" as="geometry" />
          </mxCell>
        </object>
        <object label="&lt;div&gt;&lt;span style=&quot;font-size: 14px&quot;&gt;&lt;b&gt;API&lt;/b&gt;&lt;/span&gt;&lt;/div&gt;&lt;div&gt;&lt;span style=&quot;font-size: 8px&quot;&gt;[Software System&lt;/span&gt;&lt;span style=&quot;font-size: 8px&quot;&gt;]&lt;/span&gt;&lt;br&gt;&lt;/div&gt;&lt;div&gt;&lt;span style=&quot;font-size: 8px&quot;&gt;&lt;br&gt;&lt;/span&gt;&lt;/div&gt;&lt;div&gt;&lt;font size=&quot;1&quot;&gt;A REST API, handling the data of the system&lt;/font&gt;&lt;/div&gt;" placeholders="1" name="External System Name" description="Description of Software System" id="k0FrMJODBg8dhJqT067c-0">
          <mxCell style="rounded=0;whiteSpace=wrap;html=1;fillColor=#999999;fontColor=#FFFFFF;strokeColor=#828282;resizable=0;" parent="e1K1VD6MmtJ3X1J_XKfh-1" vertex="1">
            <mxGeometry x="316" y="720" width="180" height="120" as="geometry" />
          </mxCell>
        </object>
        <object label="System Context Diagram for a hockey system&lt;br&gt;&lt;span style=&quot;font-size: x-small ; font-weight: 400&quot;&gt;The system context diagram for the Sticks&#39;n&#39;pucks system&amp;nbsp;&lt;br&gt;&lt;br&gt;&lt;/span&gt;" placeholders="1" name="Diagram Name" description="Description" id="IZ-miQ6S5iQCcmmAPqw1-0">
          <mxCell style="text;html=1;resizable=0;points=[];autosize=1;align=left;verticalAlign=top;spacingTop=-4;fontSize=14;fontColor=#404040;fontStyle=1" parent="e1K1VD6MmtJ3X1J_XKfh-1" vertex="1">
            <mxGeometry x="80" y="910" width="320" height="50" as="geometry" />
          </mxCell>
        </object>
        <object label="&lt;span style=&quot;font-size: 10px&quot;&gt;&lt;b&gt;Can view information about teams, &lt;br&gt;players and games&lt;/b&gt;&lt;br&gt;&lt;/span&gt;" placeholders="1" name="Data Flow Item Name" technology="HTTP" id="aTekrWnxq34PiuTru35F-0">
          <mxCell style="endArrow=block;html=1;fontSize=10;fontColor=#404040;strokeWidth=1;endFill=1;strokeColor=#828282;elbow=vertical;exitX=0.5;exitY=1;exitDx=0;exitDy=0;entryX=1;entryY=0;entryDx=0;entryDy=0;" parent="e1K1VD6MmtJ3X1J_XKfh-1" source="3fenQZD7WvJW-FzGtks1-1" target="UrCyRtBjpqI_1yXkmizs-0" edge="1">
            <mxGeometry width="50" height="50" relative="1" as="geometry">
              <mxPoint x="526" y="380" as="sourcePoint" />
              <mxPoint x="726" y="380" as="targetPoint" />
            </mxGeometry>
          </mxCell>
        </object>
        <object label="&lt;b&gt;Gets information about accounts, teams, games&lt;/b&gt;&lt;span style=&quot;font-size: 10px&quot;&gt;&lt;br&gt;&lt;/span&gt;" placeholders="1" name="Data Flow Item Name" technology="HTTP" id="aTekrWnxq34PiuTru35F-1">
          <mxCell style="endArrow=block;html=1;fontSize=10;fontColor=#404040;strokeWidth=1;endFill=1;strokeColor=#828282;elbow=vertical;entryX=0.5;entryY=0;entryDx=0;entryDy=0;exitX=0.5;exitY=1;exitDx=0;exitDy=0;" parent="e1K1VD6MmtJ3X1J_XKfh-1" source="UrCyRtBjpqI_1yXkmizs-0" target="k0FrMJODBg8dhJqT067c-0" edge="1">
            <mxGeometry width="50" height="50" relative="1" as="geometry">
              <mxPoint x="586" y="590" as="sourcePoint" />
              <mxPoint x="509.9999999999998" y="470" as="targetPoint" />
            </mxGeometry>
          </mxCell>
        </object>
        <object label="&lt;span style=&quot;font-size: 10px&quot;&gt;&lt;b&gt;Can create a profile,&lt;br&gt;add new team,&lt;br&gt;manages users&lt;/b&gt;&lt;br&gt;&lt;/span&gt;" placeholders="1" name="Data Flow Item Name" technology="HTTP" id="aTekrWnxq34PiuTru35F-2">
          <mxCell style="endArrow=block;html=1;fontSize=10;fontColor=#404040;strokeWidth=1;endFill=1;strokeColor=#828282;elbow=vertical;exitX=0.5;exitY=1;exitDx=0;exitDy=0;entryX=0;entryY=0;entryDx=0;entryDy=0;" parent="e1K1VD6MmtJ3X1J_XKfh-1" source="3fenQZD7WvJW-FzGtks1-4" target="UrCyRtBjpqI_1yXkmizs-0" edge="1">
            <mxGeometry width="50" height="50" relative="1" as="geometry">
              <mxPoint x="646" y="320" as="sourcePoint" />
              <mxPoint x="509.9999999999998" y="470" as="targetPoint" />
            </mxGeometry>
          </mxCell>
        </object>
        <object label="&lt;b&gt;Can create a profile,&lt;br&gt;be added to a team,&lt;/b&gt;&lt;span style=&quot;font-size: 10px&quot;&gt;&lt;br&gt;&lt;/span&gt;" placeholders="1" name="Data Flow Item Name" technology="HTTP" id="aTekrWnxq34PiuTru35F-3">
          <mxCell style="endArrow=block;html=1;fontSize=10;fontColor=#404040;strokeWidth=1;endFill=1;strokeColor=#828282;elbow=vertical;exitX=0.5;exitY=1;exitDx=0;exitDy=0;entryX=0.5;entryY=0;entryDx=0;entryDy=0;" parent="e1K1VD6MmtJ3X1J_XKfh-1" source="3fenQZD7WvJW-FzGtks1-7" target="UrCyRtBjpqI_1yXkmizs-0" edge="1">
            <mxGeometry width="50" height="50" relative="1" as="geometry">
              <mxPoint x="216" y="330" as="sourcePoint" />
              <mxPoint x="330" y="470" as="targetPoint" />
              <Array as="points" />
            </mxGeometry>
          </mxCell>
        </object>
        <mxCell id="NxbemgPw4jJCYNG57ctW-0" value="Level 1: System Context Diagram" style="text;strokeColor=none;fillColor=none;html=1;fontSize=24;fontStyle=1;verticalAlign=middle;align=center;" vertex="1" parent="e1K1VD6MmtJ3X1J_XKfh-1">
          <mxGeometry y="1070" width="824" height="60" as="geometry" />
        </mxCell>
      </root>
    </mxGraphModel>
  </diagram>
  <diagram id="IreuxClvmB6iORlShXGn" name="Level 2: Container diagram">
    <mxGraphModel dx="1738" dy="896" grid="1" gridSize="10" guides="1" tooltips="1" connect="1" arrows="1" fold="1" page="1" pageScale="1" pageWidth="1169" pageHeight="827" math="0" shadow="0">
      <root>
        <mxCell id="yyUiv2k0mnsEltlwFimP-0" />
        <mxCell id="yyUiv2k0mnsEltlwFimP-1" parent="yyUiv2k0mnsEltlwFimP-0" />
        <object label="" placeholders="1" instruction="edit data of the lower shape within the group" id="E1bOt4ZC8HGnfXmnpTCE-0">
          <mxCell style="group;resizable=0;" parent="yyUiv2k0mnsEltlwFimP-1" vertex="1" connectable="0">
            <mxGeometry x="530" y="40" width="160" height="170" as="geometry" />
          </mxCell>
        </object>
        <object label="&lt;div style=&quot;color: rgb(255 , 255 , 255) ; white-space: normal&quot;&gt;&lt;span style=&quot;font-size: 14px&quot;&gt;&lt;b&gt;Fan&lt;/b&gt;&lt;/span&gt;&lt;/div&gt;&lt;div style=&quot;color: rgb(255 , 255 , 255) ; white-space: normal&quot;&gt;&lt;span style=&quot;font-size: 8px&quot;&gt;[Person]&lt;/span&gt;&lt;br&gt;&lt;/div&gt;&lt;div style=&quot;color: rgb(255 , 255 , 255) ; white-space: normal ; font-size: 8px&quot;&gt;&lt;span style=&quot;font-size: x-small&quot;&gt;&lt;br&gt;&lt;/span&gt;&lt;/div&gt;&lt;div style=&quot;color: rgb(255 , 255 , 255) ; white-space: normal&quot;&gt;&lt;font size=&quot;1&quot;&gt;A fan of ice hockey&lt;/font&gt;&lt;/div&gt;" name="Actor Name" description="Description" placeholders="1" id="E1bOt4ZC8HGnfXmnpTCE-1">
          <mxCell style="rounded=1;whiteSpace=wrap;html=1;strokeColor=#00315C;fillColor=#004179;fontColor=#000000;arcSize=31;" parent="E1bOt4ZC8HGnfXmnpTCE-0" vertex="1">
            <mxGeometry y="70" width="160" height="100" as="geometry" />
          </mxCell>
        </object>
        <mxCell id="E1bOt4ZC8HGnfXmnpTCE-2" value="" style="ellipse;whiteSpace=wrap;html=1;aspect=fixed;strokeColor=#00315C;fillColor=#004179;fontColor=#000000;" parent="E1bOt4ZC8HGnfXmnpTCE-0" vertex="1">
          <mxGeometry x="40" width="80" height="80" as="geometry" />
        </mxCell>
        <object label="" placeholders="1" instruction="edit data of the lower shape within the group" id="E1bOt4ZC8HGnfXmnpTCE-3">
          <mxCell style="group;resizable=0;" parent="yyUiv2k0mnsEltlwFimP-1" vertex="1" connectable="0">
            <mxGeometry x="130" y="40" width="160" height="170" as="geometry" />
          </mxCell>
        </object>
        <object label="&lt;div style=&quot;color: rgb(255 , 255 , 255) ; white-space: normal&quot;&gt;&lt;span style=&quot;font-size: 14px&quot;&gt;&lt;b&gt;Manager&lt;/b&gt;&lt;/span&gt;&lt;/div&gt;&lt;div style=&quot;color: rgb(255 , 255 , 255) ; white-space: normal&quot;&gt;&lt;span style=&quot;font-size: 8px&quot;&gt;[Person]&lt;/span&gt;&lt;br&gt;&lt;/div&gt;&lt;div style=&quot;color: rgb(255 , 255 , 255) ; white-space: normal ; font-size: 8px&quot;&gt;&lt;span style=&quot;font-size: x-small&quot;&gt;&lt;br&gt;&lt;/span&gt;&lt;/div&gt;&lt;div style=&quot;color: rgb(255 , 255 , 255) ; white-space: normal&quot;&gt;&lt;font size=&quot;1&quot;&gt;A sports manager of an ice hockey team&lt;/font&gt;&lt;/div&gt;" name="Actor Name" description="Description" placeholders="1" id="E1bOt4ZC8HGnfXmnpTCE-4">
          <mxCell style="rounded=1;whiteSpace=wrap;html=1;strokeColor=#00315C;fillColor=#004179;fontColor=#000000;arcSize=31;" parent="E1bOt4ZC8HGnfXmnpTCE-3" vertex="1">
            <mxGeometry y="70" width="160" height="100" as="geometry" />
          </mxCell>
        </object>
        <mxCell id="E1bOt4ZC8HGnfXmnpTCE-5" value="" style="ellipse;whiteSpace=wrap;html=1;aspect=fixed;strokeColor=#00315C;fillColor=#004179;fontColor=#000000;" parent="E1bOt4ZC8HGnfXmnpTCE-3" vertex="1">
          <mxGeometry x="40" width="80" height="80" as="geometry" />
        </mxCell>
        <object label="" placeholders="1" instruction="edit data of the lower shape within the group" id="E1bOt4ZC8HGnfXmnpTCE-6">
          <mxCell style="group;resizable=0;" parent="yyUiv2k0mnsEltlwFimP-1" vertex="1" connectable="0">
            <mxGeometry x="330" y="40" width="160" height="170" as="geometry" />
          </mxCell>
        </object>
        <object label="&lt;div style=&quot;color: rgb(255 , 255 , 255) ; white-space: normal&quot;&gt;&lt;span style=&quot;font-size: 14px&quot;&gt;&lt;b&gt;Athlete&lt;/b&gt;&lt;/span&gt;&lt;/div&gt;&lt;div style=&quot;color: rgb(255 , 255 , 255) ; white-space: normal&quot;&gt;&lt;span style=&quot;font-size: 8px&quot;&gt;[Person]&lt;/span&gt;&lt;br&gt;&lt;/div&gt;&lt;div style=&quot;color: rgb(255 , 255 , 255) ; white-space: normal ; font-size: 8px&quot;&gt;&lt;span style=&quot;font-size: x-small&quot;&gt;&lt;br&gt;&lt;/span&gt;&lt;/div&gt;&lt;div style=&quot;color: rgb(255 , 255 , 255) ; white-space: normal&quot;&gt;&lt;font size=&quot;1&quot;&gt;A hockey player&lt;/font&gt;&lt;/div&gt;" name="Actor Name" description="Description" placeholders="1" id="E1bOt4ZC8HGnfXmnpTCE-7">
          <mxCell style="rounded=1;whiteSpace=wrap;html=1;strokeColor=#00315C;fillColor=#004179;fontColor=#000000;arcSize=31;" parent="E1bOt4ZC8HGnfXmnpTCE-6" vertex="1">
            <mxGeometry y="70" width="160" height="100" as="geometry" />
          </mxCell>
        </object>
        <mxCell id="E1bOt4ZC8HGnfXmnpTCE-8" value="" style="ellipse;whiteSpace=wrap;html=1;aspect=fixed;strokeColor=#00315C;fillColor=#004179;fontColor=#000000;" parent="E1bOt4ZC8HGnfXmnpTCE-6" vertex="1">
          <mxGeometry x="40" width="80" height="80" as="geometry" />
        </mxCell>
        <object label="&lt;div&gt;&lt;span style=&quot;font-size: 14px&quot;&gt;&lt;b&gt;Web Application&lt;/b&gt;&lt;/span&gt;&lt;/div&gt;&lt;div&gt;&lt;span style=&quot;font-size: 8px&quot;&gt;[Container: Java and Spring Booy]&lt;/span&gt;&lt;br&gt;&lt;/div&gt;&lt;div&gt;&lt;span style=&quot;font-size: 8px&quot;&gt;&lt;br&gt;&lt;/span&gt;&lt;/div&gt;&lt;div&gt;&lt;font size=&quot;1&quot;&gt;Manages the data forwarding and delivers the static content&lt;/font&gt;&lt;/div&gt;" placeholders="1" name="Software System Name" description="Description" id="E1bOt4ZC8HGnfXmnpTCE-9">
          <mxCell style="rounded=0;whiteSpace=wrap;html=1;fillColor=#0067BA;fontColor=#FFFFFF;strokeColor=#005DA8;resizable=0;" parent="yyUiv2k0mnsEltlwFimP-1" vertex="1">
            <mxGeometry x="320" y="344" width="180" height="120" as="geometry" />
          </mxCell>
        </object>
        <object label="&lt;div&gt;&lt;span style=&quot;font-size: 14px&quot;&gt;&lt;b&gt;API&lt;/b&gt;&lt;/span&gt;&lt;/div&gt;&lt;div&gt;&lt;span style=&quot;font-size: 8px&quot;&gt;[Software System&lt;/span&gt;&lt;span style=&quot;font-size: 8px&quot;&gt;]&lt;/span&gt;&lt;br&gt;&lt;/div&gt;&lt;div&gt;&lt;span style=&quot;font-size: 8px&quot;&gt;&lt;br&gt;&lt;/span&gt;&lt;/div&gt;&lt;div&gt;&lt;font size=&quot;1&quot;&gt;A REST API, handling the data of the system&lt;/font&gt;&lt;/div&gt;" placeholders="1" name="External System Name" description="Description of Software System" id="E1bOt4ZC8HGnfXmnpTCE-10">
          <mxCell style="rounded=0;whiteSpace=wrap;html=1;fillColor=#999999;fontColor=#FFFFFF;strokeColor=#828282;resizable=0;" parent="yyUiv2k0mnsEltlwFimP-1" vertex="1">
            <mxGeometry x="885" y="380" width="180" height="120" as="geometry" />
          </mxCell>
        </object>
        <object label="Container Diagram for a hockey system&lt;br&gt;&lt;span style=&quot;font-size: x-small ; font-weight: 400&quot;&gt;The container diagram for the Sticks&#39;n&#39;pucks system&lt;/span&gt;" placeholders="1" name="Diagram Name" description="Description" id="E1bOt4ZC8HGnfXmnpTCE-11">
          <mxCell style="text;html=1;resizable=0;points=[];autosize=1;align=left;verticalAlign=top;spacingTop=-4;fontSize=14;fontColor=#404040;fontStyle=1" parent="yyUiv2k0mnsEltlwFimP-1" vertex="1">
            <mxGeometry x="70" y="710" width="280" height="40" as="geometry" />
          </mxCell>
        </object>
        <object label="&lt;span style=&quot;font-size: 10px&quot;&gt;&lt;b&gt;Can view information about teams, &lt;br&gt;players and games&lt;/b&gt;&lt;br&gt;&lt;/span&gt;" placeholders="1" name="Data Flow Item Name" technology="HTTP" id="E1bOt4ZC8HGnfXmnpTCE-12">
          <mxCell style="endArrow=block;html=1;fontSize=10;fontColor=#404040;strokeWidth=1;endFill=1;strokeColor=#828282;elbow=vertical;exitX=0.5;exitY=1;exitDx=0;exitDy=0;entryX=1;entryY=0;entryDx=0;entryDy=0;" parent="yyUiv2k0mnsEltlwFimP-1" source="E1bOt4ZC8HGnfXmnpTCE-1" target="E1bOt4ZC8HGnfXmnpTCE-9" edge="1">
            <mxGeometry width="50" height="50" relative="1" as="geometry">
              <mxPoint x="510" y="254" as="sourcePoint" />
              <mxPoint x="710" y="254" as="targetPoint" />
            </mxGeometry>
          </mxCell>
        </object>
        <object label="&lt;b&gt;Reads from and writes to&lt;br&gt;&lt;/b&gt;&lt;span style=&quot;font-size: 10px&quot;&gt;[JDBC]&lt;br&gt;&lt;/span&gt;" placeholders="1" name="Data Flow Item Name" technology="HTTP" id="E1bOt4ZC8HGnfXmnpTCE-13">
          <mxCell style="endArrow=block;html=1;fontSize=10;fontColor=#404040;strokeWidth=1;endFill=1;elbow=vertical;exitX=0;exitY=0.75;exitDx=0;exitDy=0;" parent="yyUiv2k0mnsEltlwFimP-1" target="CGj04B_fqVY-b1EHtSBO-0" edge="1" source="E1bOt4ZC8HGnfXmnpTCE-10">
            <mxGeometry x="-0.0385" y="35" width="50" height="50" relative="1" as="geometry">
              <mxPoint x="669" y="436" as="sourcePoint" />
              <mxPoint x="319" y="596" as="targetPoint" />
              <mxPoint as="offset" />
            </mxGeometry>
          </mxCell>
        </object>
        <object label="&lt;span style=&quot;font-size: 10px&quot;&gt;&lt;b&gt;Can create a profile,&lt;br&gt;add new team,&lt;br&gt;manages users&lt;/b&gt;&lt;br&gt;&lt;/span&gt;" placeholders="1" name="Data Flow Item Name" technology="HTTP" id="E1bOt4ZC8HGnfXmnpTCE-14">
          <mxCell style="endArrow=block;html=1;fontSize=10;fontColor=#404040;strokeWidth=1;endFill=1;strokeColor=#828282;elbow=vertical;exitX=0.5;exitY=1;exitDx=0;exitDy=0;entryX=0;entryY=0;entryDx=0;entryDy=0;" parent="yyUiv2k0mnsEltlwFimP-1" source="E1bOt4ZC8HGnfXmnpTCE-4" target="E1bOt4ZC8HGnfXmnpTCE-9" edge="1">
            <mxGeometry width="50" height="50" relative="1" as="geometry">
              <mxPoint x="630" y="194" as="sourcePoint" />
              <mxPoint x="493.9999999999998" y="344" as="targetPoint" />
            </mxGeometry>
          </mxCell>
        </object>
        <object label="&lt;b&gt;Can create a profile,&lt;br&gt;be added to a team,&lt;/b&gt;&lt;span style=&quot;font-size: 10px&quot;&gt;&lt;br&gt;&lt;/span&gt;" placeholders="1" name="Data Flow Item Name" technology="HTTP" id="E1bOt4ZC8HGnfXmnpTCE-15">
          <mxCell style="endArrow=block;html=1;fontSize=10;fontColor=#404040;strokeWidth=1;endFill=1;strokeColor=#828282;elbow=vertical;exitX=0.5;exitY=1;exitDx=0;exitDy=0;entryX=0.5;entryY=0;entryDx=0;entryDy=0;" parent="yyUiv2k0mnsEltlwFimP-1" source="E1bOt4ZC8HGnfXmnpTCE-7" target="E1bOt4ZC8HGnfXmnpTCE-9" edge="1">
            <mxGeometry width="50" height="50" relative="1" as="geometry">
              <mxPoint x="200" y="204" as="sourcePoint" />
              <mxPoint x="314" y="344" as="targetPoint" />
              <Array as="points" />
            </mxGeometry>
          </mxCell>
        </object>
        <object label="&lt;font style=&quot;font-size: 10px&quot;&gt;&lt;b&gt;Sticks&#39;n&#39;pucks&lt;br&gt;&lt;/b&gt;[Software system]&lt;/font&gt;" placeholders="1" name="Domain Name" id="JV11G2gHLhdAqpbSDqh5-0">
          <mxCell style="rounded=0;whiteSpace=wrap;html=1;strokeColor=#828282;fillColor=none;fontColor=#000000;align=left;labelPosition=center;verticalLabelPosition=middle;verticalAlign=bottom;dashed=1;strokeWidth=1;perimeterSpacing=0;spacing=2;spacingTop=0;fontSize=10;dashPattern=8 8;" parent="yyUiv2k0mnsEltlwFimP-1" vertex="1">
            <mxGeometry x="265" y="310" width="290" height="330" as="geometry" />
          </mxCell>
        </object>
        <object label="&lt;div style=&quot;color: rgb(255 , 255 , 255) ; white-space: normal&quot;&gt;&lt;span style=&quot;font-size: 14px&quot;&gt;&lt;b&gt;Database&lt;/b&gt;&lt;/span&gt;&lt;/div&gt;&lt;div style=&quot;color: rgb(255 , 255 , 255) ; white-space: normal&quot;&gt;&lt;span style=&quot;font-size: 8px&quot;&gt;[Container: MySQL]&lt;/span&gt;&lt;br&gt;&lt;/div&gt;&lt;div style=&quot;color: rgb(255 , 255 , 255) ; white-space: normal ; font-size: 8px&quot;&gt;&lt;font style=&quot;line-height: 9.6px&quot;&gt;&lt;br&gt;&lt;/font&gt;&lt;/div&gt;&lt;div style=&quot;color: rgb(255 , 255 , 255) ; white-space: normal&quot;&gt;Stores user registration information, teams, player statistics, games information, statistics, etc&lt;/div&gt;&lt;div style=&quot;color: rgb(255 , 255 , 255) ; white-space: normal&quot;&gt;&lt;br&gt;&lt;/div&gt;" placeholders="1" name="Container Name" description="Description" technology="e.g. PostgreSQL" id="CGj04B_fqVY-b1EHtSBO-0">
          <mxCell style="shape=cylinder;whiteSpace=wrap;html=1;boundedLbl=1;backgroundOutline=1;strokeColor=#2F6FA6;strokeWidth=1;fillColor=#3B8CD2;fontSize=9;fontColor=#000000;align=center;resizable=0;" parent="yyUiv2k0mnsEltlwFimP-1" vertex="1">
            <mxGeometry x="320" y="490" width="180" height="120" as="geometry" />
          </mxCell>
        </object>
        <object label="&lt;b&gt;Makes API calls to&lt;/b&gt;" placeholders="1" name="Data Flow Item Name" technology="HTTP" id="CGj04B_fqVY-b1EHtSBO-3">
          <mxCell style="endArrow=block;html=1;fontSize=10;fontColor=#404040;strokeWidth=1;endFill=1;elbow=vertical;entryX=0.008;entryY=0.355;entryDx=0;entryDy=0;entryPerimeter=0;" parent="yyUiv2k0mnsEltlwFimP-1" source="E1bOt4ZC8HGnfXmnpTCE-9" edge="1" target="E1bOt4ZC8HGnfXmnpTCE-10">
            <mxGeometry x="-0.1448" y="-26" width="50" height="50" relative="1" as="geometry">
              <mxPoint x="370" y="614" as="sourcePoint" />
              <mxPoint x="680" y="434" as="targetPoint" />
              <mxPoint as="offset" />
            </mxGeometry>
          </mxCell>
        </object>
        <mxCell id="sl6PU0jUDsPt_d8GIBz_-0" value="Level 2: Container Diagram" style="text;strokeColor=none;fillColor=none;html=1;fontSize=24;fontStyle=1;verticalAlign=middle;align=center;" vertex="1" parent="yyUiv2k0mnsEltlwFimP-1">
          <mxGeometry x="410" y="700" width="700" height="60" as="geometry" />
        </mxCell>
      </root>
    </mxGraphModel>
  </diagram>
  <diagram id="vNAvZl7QjXxnfk9TZqLu" name="Level 3: Component diagram">
    <mxGraphModel dx="4293" dy="1008" grid="1" gridSize="10" guides="1" tooltips="1" connect="1" arrows="1" fold="1" page="1" pageScale="1" pageWidth="1169" pageHeight="827" math="0" shadow="0">
      <root>
        <mxCell id="IPgy6yM4qCA0l31l_Qpo-0" />
        <mxCell id="IPgy6yM4qCA0l31l_Qpo-1" parent="IPgy6yM4qCA0l31l_Qpo-0" />
        <object label="&lt;div style=&quot;color: rgb(255 , 255 , 255) ; white-space: normal&quot;&gt;&lt;span style=&quot;font-size: 14px&quot;&gt;&lt;b&gt;Database&lt;/b&gt;&lt;/span&gt;&lt;/div&gt;&lt;div style=&quot;color: rgb(255 , 255 , 255) ; white-space: normal&quot;&gt;&lt;span style=&quot;font-size: 8px&quot;&gt;[Container: MySQL]&lt;/span&gt;&lt;br&gt;&lt;/div&gt;&lt;div style=&quot;color: rgb(255 , 255 , 255) ; white-space: normal ; font-size: 8px&quot;&gt;&lt;font style=&quot;line-height: 9.6px&quot;&gt;&lt;br&gt;&lt;/font&gt;&lt;/div&gt;&lt;div style=&quot;color: rgb(255 , 255 , 255) ; white-space: normal&quot;&gt;Stores user registration information, teams, player statistics, games information, statistics, etc&lt;/div&gt;&lt;div style=&quot;color: rgb(255 , 255 , 255) ; white-space: normal&quot;&gt;&lt;br&gt;&lt;/div&gt;" placeholders="1" name="Container Name" description="Description" technology="e.g. PostgreSQL" id="JEnYF1Fvz3offgFsqcfW-0">
          <mxCell style="shape=cylinder;whiteSpace=wrap;html=1;boundedLbl=1;backgroundOutline=1;strokeColor=#2F6FA6;strokeWidth=1;fillColor=#3B8CD2;fontSize=9;fontColor=#000000;align=center;resizable=0;" parent="IPgy6yM4qCA0l31l_Qpo-1" vertex="1">
            <mxGeometry x="-2190" y="570" width="180" height="120" as="geometry" />
          </mxCell>
        </object>
        <object label="&lt;div&gt;&lt;span style=&quot;font-size: 14px&quot;&gt;&lt;b&gt;API&lt;/b&gt;&lt;/span&gt;&lt;/div&gt;&lt;div&gt;&lt;span style=&quot;font-size: 8px&quot;&gt;[Software System&lt;/span&gt;&lt;span style=&quot;font-size: 8px&quot;&gt;]&lt;/span&gt;&lt;br&gt;&lt;/div&gt;&lt;div&gt;&lt;span style=&quot;font-size: 8px&quot;&gt;&lt;br&gt;&lt;/span&gt;&lt;/div&gt;&lt;div&gt;&lt;font size=&quot;1&quot;&gt;A REST API, handling the data of the system&lt;/font&gt;&lt;/div&gt;" placeholders="1" name="External System Name" description="Description of Software System" id="_SUjy9MXC5A2pB0z08C8-0">
          <mxCell style="rounded=0;whiteSpace=wrap;html=1;fillColor=#999999;fontColor=#FFFFFF;strokeColor=#828282;resizable=0;" parent="IPgy6yM4qCA0l31l_Qpo-1" vertex="1">
            <mxGeometry x="-1860" y="570" width="180" height="120" as="geometry" />
          </mxCell>
        </object>
        <object label="&lt;div&gt;&lt;span style=&quot;font-size: 14px&quot;&gt;&lt;b&gt;Web Application&lt;/b&gt;&lt;/span&gt;&lt;/div&gt;&lt;div&gt;&lt;span style=&quot;font-size: 8px&quot;&gt;[Container: Java and Spring Booy]&lt;/span&gt;&lt;br&gt;&lt;/div&gt;&lt;div&gt;&lt;span style=&quot;font-size: 8px&quot;&gt;&lt;br&gt;&lt;/span&gt;&lt;/div&gt;&lt;div&gt;&lt;font size=&quot;1&quot;&gt;Manages the data forwarding and delivers the static content&lt;/font&gt;&lt;/div&gt;" placeholders="1" name="Software System Name" description="Description" id="99VsMWmBKfu-NgFogZuD-0">
          <mxCell style="rounded=0;whiteSpace=wrap;html=1;fillColor=#0067BA;fontColor=#FFFFFF;strokeColor=#005DA8;resizable=0;" parent="IPgy6yM4qCA0l31l_Qpo-1" vertex="1">
            <mxGeometry x="-1820" y="20" width="180" height="120" as="geometry" />
          </mxCell>
        </object>
        <object label="&lt;div&gt;&lt;span style=&quot;font-size: 14px&quot;&gt;&lt;b&gt;Sign in Controller&lt;/b&gt;&lt;/span&gt;&lt;/div&gt;&lt;div&gt;&lt;span style=&quot;font-size: 8px&quot;&gt;[Component: Spring Boot MVC Controller]&lt;/span&gt;&lt;/div&gt;&lt;div&gt;&lt;span style=&quot;font-size: 8px&quot;&gt;&lt;br&gt;&lt;/span&gt;&lt;/div&gt;&lt;div&gt;&lt;font size=&quot;1&quot;&gt;Allows users to sign in to the web application&lt;/font&gt;&lt;/div&gt;" placeholders="1" name="Component Name" technology="e.g. Spring Bean" description="Description" id="L83C8q0s2tNWdTFa3ev6-0">
          <mxCell style="rounded=0;whiteSpace=wrap;html=1;fillColor=#85baf0;fontColor=#000000;strokeColor=#6992BD;resizable=0;" parent="IPgy6yM4qCA0l31l_Qpo-1" vertex="1">
            <mxGeometry x="-2150" y="110" width="180" height="120" as="geometry" />
          </mxCell>
        </object>
        <object label="&lt;div&gt;&lt;span style=&quot;font-size: 14px&quot;&gt;&lt;b&gt;Teams Controller&lt;/b&gt;&lt;/span&gt;&lt;/div&gt;&lt;div&gt;&lt;span style=&quot;font-size: 8px&quot;&gt;[Component: Spring Boot MVC Controller]&lt;/span&gt;&lt;/div&gt;&lt;div&gt;&lt;span style=&quot;font-size: 8px&quot;&gt;&lt;br&gt;&lt;/span&gt;&lt;/div&gt;&lt;div&gt;&lt;font size=&quot;1&quot;&gt;Provides the functionality related to teams&lt;/font&gt;&lt;/div&gt;" placeholders="1" name="Component Name" technology="e.g. Spring Bean" description="Description" id="L83C8q0s2tNWdTFa3ev6-1">
          <mxCell style="rounded=0;whiteSpace=wrap;html=1;fillColor=#85baf0;fontColor=#000000;strokeColor=#6992BD;resizable=0;" parent="IPgy6yM4qCA0l31l_Qpo-1" vertex="1">
            <mxGeometry x="-1710" y="250" width="180" height="120" as="geometry" />
          </mxCell>
        </object>
        <object label="&lt;div&gt;&lt;span style=&quot;font-size: 14px&quot;&gt;&lt;b&gt;Players Controller&lt;/b&gt;&lt;/span&gt;&lt;/div&gt;&lt;div&gt;&lt;span style=&quot;font-size: 8px&quot;&gt;[Component: Spring Boot MVC Controller]&lt;/span&gt;&lt;/div&gt;&lt;div&gt;&lt;span style=&quot;font-size: 8px&quot;&gt;&lt;br&gt;&lt;/span&gt;&lt;/div&gt;&lt;div&gt;&lt;font size=&quot;1&quot;&gt;Provides the functionality related to players&lt;/font&gt;&lt;/div&gt;" placeholders="1" name="Component Name" technology="e.g. Spring Bean" description="Description" id="L83C8q0s2tNWdTFa3ev6-3">
          <mxCell style="rounded=0;whiteSpace=wrap;html=1;fillColor=#85baf0;fontColor=#000000;strokeColor=#6992BD;resizable=0;" parent="IPgy6yM4qCA0l31l_Qpo-1" vertex="1">
            <mxGeometry x="-1920" y="240" width="180" height="120" as="geometry" />
          </mxCell>
        </object>
        <object label="&lt;div&gt;&lt;span style=&quot;font-size: 14px&quot;&gt;&lt;b&gt;Penalties Controller&lt;/b&gt;&lt;/span&gt;&lt;/div&gt;&lt;div&gt;&lt;span style=&quot;font-size: 8px&quot;&gt;[Component: Spring Boot MVC Controller]&lt;/span&gt;&lt;/div&gt;&lt;div&gt;&lt;span style=&quot;font-size: 8px&quot;&gt;&lt;br&gt;&lt;/span&gt;&lt;/div&gt;&lt;div&gt;&lt;font size=&quot;1&quot;&gt;Acts as source of truth for information about penalties&lt;/font&gt;&lt;/div&gt;" placeholders="1" name="Component Name" technology="e.g. Spring Bean" description="Description" id="L83C8q0s2tNWdTFa3ev6-4">
          <mxCell style="rounded=0;whiteSpace=wrap;html=1;fillColor=#85baf0;fontColor=#000000;strokeColor=#6992BD;resizable=0;" parent="IPgy6yM4qCA0l31l_Qpo-1" vertex="1">
            <mxGeometry x="-1580" y="570" width="180" height="120" as="geometry" />
          </mxCell>
        </object>
        <object label="&lt;div&gt;&lt;span style=&quot;font-size: 14px&quot;&gt;&lt;b&gt;Users Controller&lt;/b&gt;&lt;/span&gt;&lt;/div&gt;&lt;div&gt;&lt;span style=&quot;font-size: 8px&quot;&gt;[Component: Spring Boot MVC Controller]&lt;/span&gt;&lt;/div&gt;&lt;div&gt;&lt;span style=&quot;font-size: 8px&quot;&gt;&lt;br&gt;&lt;/span&gt;&lt;/div&gt;&lt;div&gt;&lt;font size=&quot;1&quot;&gt;Provides the functionality related to account management&lt;/font&gt;&lt;/div&gt;" placeholders="1" name="Component Name" technology="e.g. Spring Bean" description="Description" id="L83C8q0s2tNWdTFa3ev6-5">
          <mxCell style="rounded=0;whiteSpace=wrap;html=1;fillColor=#85baf0;fontColor=#000000;strokeColor=#6992BD;resizable=0;" parent="IPgy6yM4qCA0l31l_Qpo-1" vertex="1">
            <mxGeometry x="-2140" y="297" width="180" height="120" as="geometry" />
          </mxCell>
        </object>
        <object label="&lt;div&gt;&lt;span style=&quot;font-size: 14px&quot;&gt;&lt;b&gt;API Controller&lt;/b&gt;&lt;/span&gt;&lt;/div&gt;&lt;div&gt;&lt;span style=&quot;font-size: 8px&quot;&gt;[Component: Spring Boot MVC Controller]&lt;/span&gt;&lt;/div&gt;&lt;div&gt;&lt;span style=&quot;font-size: 8px&quot;&gt;&lt;br&gt;&lt;/span&gt;&lt;/div&gt;&lt;div&gt;&lt;font size=&quot;1&quot;&gt;Helper class for making requests to the API&lt;/font&gt;&lt;/div&gt;" placeholders="1" name="Component Name" technology="e.g. Spring Bean" description="Description" id="L83C8q0s2tNWdTFa3ev6-6">
          <mxCell style="rounded=0;whiteSpace=wrap;html=1;fillColor=#85baf0;fontColor=#000000;strokeColor=#6992BD;resizable=0;" parent="IPgy6yM4qCA0l31l_Qpo-1" vertex="1">
            <mxGeometry x="-1880" y="404" width="180" height="120" as="geometry" />
          </mxCell>
        </object>
        <object label="&lt;b&gt;Uses&lt;/b&gt;" placeholders="1" name="Dependency Operation Name" technology="JDBC" id="RnNZJtdF1Tctq_yQzdeZ-0">
          <mxCell style="endArrow=block;html=1;fontSize=10;fontColor=#404040;strokeWidth=1;endFill=1;dashed=1;dashPattern=8 8;strokeColor=#828282;elbow=vertical;exitX=0.5;exitY=1;exitDx=0;exitDy=0;entryX=0.5;entryY=0;entryDx=0;entryDy=0;" parent="IPgy6yM4qCA0l31l_Qpo-1" target="L83C8q0s2tNWdTFa3ev6-5" edge="1" source="L83C8q0s2tNWdTFa3ev6-0">
            <mxGeometry width="50" height="50" relative="1" as="geometry">
              <mxPoint x="-2003" y="339.9999999999998" as="sourcePoint" />
              <mxPoint x="-1663" y="290" as="targetPoint" />
            </mxGeometry>
          </mxCell>
        </object>
        <object label="&lt;b&gt;Uses&lt;/b&gt;" placeholders="1" name="Dependency Operation Name" technology="JDBC" id="RnNZJtdF1Tctq_yQzdeZ-1">
          <mxCell style="endArrow=block;html=1;fontSize=10;fontColor=#404040;strokeWidth=1;endFill=1;dashed=1;dashPattern=8 8;strokeColor=#828282;elbow=vertical;exitX=0.5;exitY=1;exitDx=0;exitDy=0;" parent="IPgy6yM4qCA0l31l_Qpo-1" source="L83C8q0s2tNWdTFa3ev6-5" edge="1">
            <mxGeometry width="50" height="50" relative="1" as="geometry">
              <mxPoint x="-1993" y="405" as="sourcePoint" />
              <mxPoint x="-1870" y="480" as="targetPoint" />
              <Array as="points">
                <mxPoint x="-2050" y="480" />
              </Array>
            </mxGeometry>
          </mxCell>
        </object>
        <object label="&lt;b&gt;Uses&lt;/b&gt;" placeholders="1" name="Dependency Operation Name" technology="JDBC" id="RnNZJtdF1Tctq_yQzdeZ-2">
          <mxCell style="endArrow=block;html=1;fontSize=10;fontColor=#404040;strokeWidth=1;endFill=1;dashed=1;dashPattern=8 8;strokeColor=#828282;elbow=vertical;entryX=0.25;entryY=0;entryDx=0;entryDy=0;exitX=0.5;exitY=1;exitDx=0;exitDy=0;" parent="IPgy6yM4qCA0l31l_Qpo-1" source="L83C8q0s2tNWdTFa3ev6-3" target="L83C8q0s2tNWdTFa3ev6-6" edge="1">
            <mxGeometry width="50" height="50" relative="1" as="geometry">
              <mxPoint x="-1840" y="370" as="sourcePoint" />
              <mxPoint x="-1983" y="415" as="targetPoint" />
            </mxGeometry>
          </mxCell>
        </object>
        <object label="&lt;b&gt;Uses&lt;/b&gt;" placeholders="1" name="Dependency Operation Name" technology="JDBC" id="RnNZJtdF1Tctq_yQzdeZ-3">
          <mxCell style="endArrow=block;html=1;fontSize=10;fontColor=#404040;strokeWidth=1;endFill=1;dashed=1;dashPattern=8 8;strokeColor=#828282;elbow=vertical;exitX=0.75;exitY=1;exitDx=0;exitDy=0;" parent="IPgy6yM4qCA0l31l_Qpo-1" source="L83C8q0s2tNWdTFa3ev6-1" edge="1">
            <mxGeometry width="50" height="50" relative="1" as="geometry">
              <mxPoint x="-1973" y="370" as="sourcePoint" />
              <mxPoint x="-1700" y="410" as="targetPoint" />
              <Array as="points">
                <mxPoint x="-1575" y="410" />
              </Array>
            </mxGeometry>
          </mxCell>
        </object>
        <object label="&lt;b&gt;Uses&lt;/b&gt;" placeholders="1" name="Dependency Operation Name" technology="JDBC" id="RnNZJtdF1Tctq_yQzdeZ-4">
          <mxCell style="endArrow=block;html=1;fontSize=10;fontColor=#404040;strokeWidth=1;endFill=1;dashed=1;dashPattern=8 8;strokeColor=#828282;elbow=vertical;exitX=0.25;exitY=1;exitDx=0;exitDy=0;entryX=1;entryY=0.308;entryDx=0;entryDy=0;entryPerimeter=0;" parent="IPgy6yM4qCA0l31l_Qpo-1" source="L83C8q0s2tNWdTFa3ev6-2" target="L83C8q0s2tNWdTFa3ev6-6" edge="1">
            <mxGeometry x="0.4307" width="50" height="50" relative="1" as="geometry">
              <mxPoint x="-1963" y="380" as="sourcePoint" />
              <mxPoint x="-1963" y="435" as="targetPoint" />
              <Array as="points">
                <mxPoint x="-1450" y="441" />
              </Array>
              <mxPoint as="offset" />
            </mxGeometry>
          </mxCell>
        </object>
        <object label="&lt;b&gt;Uses&lt;/b&gt;" placeholders="1" name="Dependency Operation Name" technology="JDBC" id="RnNZJtdF1Tctq_yQzdeZ-5">
          <mxCell style="endArrow=block;html=1;fontSize=10;fontColor=#404040;strokeWidth=1;endFill=1;dashed=1;dashPattern=8 8;strokeColor=#828282;elbow=vertical;exitX=0.5;exitY=1;exitDx=0;exitDy=0;entryX=0.75;entryY=0;entryDx=0;entryDy=0;" parent="IPgy6yM4qCA0l31l_Qpo-1" target="L83C8q0s2tNWdTFa3ev6-4" edge="1" source="L83C8q0s2tNWdTFa3ev6-2">
            <mxGeometry width="50" height="50" relative="1" as="geometry">
              <mxPoint x="-1303" y="500" as="sourcePoint" />
              <mxPoint x="-1490" y="580" as="targetPoint" />
            </mxGeometry>
          </mxCell>
        </object>
        <object label="&lt;b&gt;Uses&lt;/b&gt;" placeholders="1" name="Dependency Operation Name" technology="JDBC" id="RnNZJtdF1Tctq_yQzdeZ-6">
          <mxCell style="endArrow=block;html=1;fontSize=10;fontColor=#404040;strokeWidth=1;endFill=1;dashed=1;dashPattern=8 8;strokeColor=#828282;elbow=vertical;entryX=1;entryY=0.667;entryDx=0;entryDy=0;exitX=-0.006;exitY=0.558;exitDx=0;exitDy=0;exitPerimeter=0;entryPerimeter=0;" parent="IPgy6yM4qCA0l31l_Qpo-1" source="L83C8q0s2tNWdTFa3ev6-4" target="L83C8q0s2tNWdTFa3ev6-6" edge="1">
            <mxGeometry width="50" height="50" relative="1" as="geometry">
              <mxPoint x="-1307" y="510" as="sourcePoint" />
              <mxPoint x="-1307" y="570.96" as="targetPoint" />
            </mxGeometry>
          </mxCell>
        </object>
        <object label="&lt;b&gt;Uses&lt;/b&gt;" placeholders="1" name="Dependency Operation Name" technology="JDBC" id="RnNZJtdF1Tctq_yQzdeZ-7">
          <mxCell style="endArrow=block;html=1;fontSize=10;fontColor=#404040;strokeWidth=1;endFill=1;dashed=1;dashPattern=8 8;strokeColor=#828282;elbow=vertical;exitX=0.75;exitY=1;exitDx=0;exitDy=0;" parent="IPgy6yM4qCA0l31l_Qpo-1" source="L83C8q0s2tNWdTFa3ev6-6" edge="1">
            <mxGeometry width="50" height="50" relative="1" as="geometry">
              <mxPoint x="-1297" y="520" as="sourcePoint" />
              <mxPoint x="-1745" y="570" as="targetPoint" />
            </mxGeometry>
          </mxCell>
        </object>
        <object label="&lt;b&gt;Reads from and writes to&lt;br&gt;&lt;/b&gt;&lt;span style=&quot;font-size: 10px&quot;&gt;[JDBC]&lt;br&gt;&lt;/span&gt;" placeholders="1" name="Data Flow Item Name" technology="HTTP" id="QbQE-aDcEB9yzQGnHKZ6-0">
          <mxCell style="endArrow=block;html=1;fontSize=10;fontColor=#404040;strokeWidth=1;endFill=1;elbow=vertical;exitX=0;exitY=0.5;exitDx=0;exitDy=0;entryX=1;entryY=0.5;entryDx=0;entryDy=0;" parent="IPgy6yM4qCA0l31l_Qpo-1" source="_SUjy9MXC5A2pB0z08C8-0" target="JEnYF1Fvz3offgFsqcfW-0" edge="1">
            <mxGeometry x="0.0244" y="-20" width="50" height="50" relative="1" as="geometry">
              <mxPoint x="-1563" y="270" as="sourcePoint" />
              <mxPoint x="-1920" y="840" as="targetPoint" />
              <mxPoint as="offset" />
            </mxGeometry>
          </mxCell>
        </object>
        <object label="&lt;b style=&quot;font-size: 12px&quot;&gt;Makes calls to&lt;br&gt;[HTTPS]&lt;/b&gt;" placeholders="1" name="Dependency Operation Name" technology="JDBC" id="QbQE-aDcEB9yzQGnHKZ6-1">
          <mxCell style="endArrow=block;html=1;fontSize=10;fontColor=#404040;strokeWidth=1;endFill=1;dashed=1;dashPattern=8 8;strokeColor=#828282;elbow=vertical;exitX=0.604;exitY=1;exitDx=0;exitDy=0;entryX=0.5;entryY=0;entryDx=0;entryDy=0;exitPerimeter=0;" parent="IPgy6yM4qCA0l31l_Qpo-1" source="99VsMWmBKfu-NgFogZuD-0" target="L83C8q0s2tNWdTFa3ev6-1" edge="1">
            <mxGeometry width="50" height="50" relative="1" as="geometry">
              <mxPoint x="-1759" y="479.9999999999998" as="sourcePoint" />
              <mxPoint x="-1702.75" y="579.9999999999998" as="targetPoint" />
            </mxGeometry>
          </mxCell>
        </object>
        <object label="&lt;b style=&quot;font-size: 12px&quot;&gt;Makes calls to&lt;br&gt;[HTTPS]&lt;/b&gt;" placeholders="1" name="Dependency Operation Name" technology="JDBC" id="QbQE-aDcEB9yzQGnHKZ6-2">
          <mxCell style="endArrow=block;html=1;fontSize=10;fontColor=#404040;strokeWidth=1;endFill=1;dashed=1;dashPattern=8 8;strokeColor=#828282;elbow=vertical;entryX=0.55;entryY=0;entryDx=0;entryDy=0;entryPerimeter=0;exitX=0.367;exitY=0.972;exitDx=0;exitDy=0;exitPerimeter=0;" parent="IPgy6yM4qCA0l31l_Qpo-1" target="L83C8q0s2tNWdTFa3ev6-3" edge="1" source="99VsMWmBKfu-NgFogZuD-0">
            <mxGeometry x="0.4562" y="-4" width="50" height="50" relative="1" as="geometry">
              <mxPoint x="-1670" y="190" as="sourcePoint" />
              <mxPoint x="-1543" y="349.9999999999998" as="targetPoint" />
              <mxPoint as="offset" />
            </mxGeometry>
          </mxCell>
        </object>
        <object label="&lt;b style=&quot;font-size: 12px&quot;&gt;Makes calls to&lt;br&gt;[HTTPS]&lt;/b&gt;" placeholders="1" name="Dependency Operation Name" technology="JDBC" id="QbQE-aDcEB9yzQGnHKZ6-3">
          <mxCell style="endArrow=block;html=1;fontSize=10;fontColor=#404040;strokeWidth=1;endFill=1;dashed=1;dashPattern=8 8;strokeColor=#828282;elbow=vertical;exitX=1;exitY=1;exitDx=0;exitDy=0;entryX=0.5;entryY=0;entryDx=0;entryDy=0;" parent="IPgy6yM4qCA0l31l_Qpo-1" source="99VsMWmBKfu-NgFogZuD-0" target="L83C8q0s2tNWdTFa3ev6-4" edge="1">
            <mxGeometry x="-0.3948" y="4" width="50" height="50" relative="1" as="geometry">
              <mxPoint x="-1646" y="209.99999999999977" as="sourcePoint" />
              <mxPoint x="-1510" y="577" as="targetPoint" />
              <Array as="points">
                <mxPoint x="-1510" y="227" />
              </Array>
              <mxPoint as="offset" />
            </mxGeometry>
          </mxCell>
        </object>
        <object label="&lt;b style=&quot;font-size: 12px&quot;&gt;Makes calls to&lt;br&gt;[HTTPS]&lt;/b&gt;" placeholders="1" name="Dependency Operation Name" technology="JDBC" id="QbQE-aDcEB9yzQGnHKZ6-4">
          <mxCell style="endArrow=block;html=1;fontSize=10;fontColor=#404040;strokeWidth=1;endFill=1;dashed=1;dashPattern=8 8;strokeColor=#828282;elbow=vertical;exitX=0;exitY=0.5;exitDx=0;exitDy=0;entryX=0.75;entryY=0;entryDx=0;entryDy=0;" parent="IPgy6yM4qCA0l31l_Qpo-1" source="99VsMWmBKfu-NgFogZuD-0" target="L83C8q0s2tNWdTFa3ev6-0" edge="1">
            <mxGeometry width="50" height="50" relative="1" as="geometry">
              <mxPoint x="-1636" y="219.99999999999977" as="sourcePoint" />
              <mxPoint x="-1523" y="369.9999999999998" as="targetPoint" />
            </mxGeometry>
          </mxCell>
        </object>
        <object label="&lt;b style=&quot;font-size: 12px&quot;&gt;Makes calls to&lt;br&gt;[HTTPS]&lt;/b&gt;" placeholders="1" name="Dependency Operation Name" technology="JDBC" id="QbQE-aDcEB9yzQGnHKZ6-5">
          <mxCell style="endArrow=block;html=1;fontSize=10;fontColor=#404040;strokeWidth=1;endFill=1;dashed=1;dashPattern=8 8;strokeColor=#828282;elbow=vertical;exitX=0;exitY=1;exitDx=0;exitDy=0;entryX=1;entryY=0;entryDx=0;entryDy=0;" parent="IPgy6yM4qCA0l31l_Qpo-1" source="99VsMWmBKfu-NgFogZuD-0" target="L83C8q0s2tNWdTFa3ev6-5" edge="1">
            <mxGeometry width="50" height="50" relative="1" as="geometry">
              <mxPoint x="-1626" y="229.99999999999977" as="sourcePoint" />
              <mxPoint x="-1513" y="379.9999999999998" as="targetPoint" />
            </mxGeometry>
          </mxCell>
        </object>
        <object label="&lt;b style=&quot;font-size: 12px&quot;&gt;Makes calls to&lt;br&gt;[HTTPS]&lt;/b&gt;" placeholders="1" name="Dependency Operation Name" technology="JDBC" id="QbQE-aDcEB9yzQGnHKZ6-6">
          <mxCell style="endArrow=block;html=1;fontSize=10;fontColor=#404040;strokeWidth=1;endFill=1;dashed=1;dashPattern=8 8;strokeColor=#828282;elbow=vertical;exitX=0.75;exitY=1;exitDx=0;exitDy=0;" parent="IPgy6yM4qCA0l31l_Qpo-1" source="L83C8q0s2tNWdTFa3ev6-2" edge="1">
            <mxGeometry x="-0.2126" width="50" height="50" relative="1" as="geometry">
              <mxPoint x="-1616" y="239.99999999999977" as="sourcePoint" />
              <mxPoint x="-1400" y="633" as="targetPoint" />
              <Array as="points">
                <mxPoint x="-1285" y="633" />
                <mxPoint x="-1390" y="633" />
                <mxPoint x="-1330" y="633" />
              </Array>
              <mxPoint y="1" as="offset" />
            </mxGeometry>
          </mxCell>
        </object>
        <object label="&lt;b style=&quot;font-size: 12px&quot;&gt;Makes calls to&lt;br&gt;[HTTPS]&lt;/b&gt;" placeholders="1" name="Dependency Operation Name" technology="JDBC" id="QbQE-aDcEB9yzQGnHKZ6-7">
          <mxCell style="endArrow=block;html=1;fontSize=10;fontColor=#404040;strokeWidth=1;endFill=1;dashed=1;dashPattern=8 8;strokeColor=#828282;elbow=vertical;exitX=0;exitY=0.25;exitDx=0;exitDy=0;entryX=0;entryY=0.5;entryDx=0;entryDy=0;" parent="IPgy6yM4qCA0l31l_Qpo-1" source="99VsMWmBKfu-NgFogZuD-0" target="L83C8q0s2tNWdTFa3ev6-5" edge="1">
            <mxGeometry x="-0.5001" width="50" height="50" relative="1" as="geometry">
              <mxPoint x="-1606" y="249.99999999999977" as="sourcePoint" />
              <mxPoint x="-1493" y="399.9999999999998" as="targetPoint" />
              <Array as="points">
                <mxPoint x="-2180" y="60" />
                <mxPoint x="-2190" y="357" />
              </Array>
              <mxPoint as="offset" />
            </mxGeometry>
          </mxCell>
        </object>
        <object label="&lt;font style=&quot;font-size: 10px&quot;&gt;&lt;b&gt;Sticks&#39;n&#39;pucks Web Application&lt;br&gt;&lt;/b&gt;[Container]&lt;/font&gt;" placeholders="1" name="Domain Name" id="sISrky6rgoXqyKlffY52-0">
          <mxCell style="rounded=0;whiteSpace=wrap;html=1;strokeColor=#828282;fillColor=none;fontColor=#000000;align=left;labelPosition=center;verticalLabelPosition=middle;verticalAlign=bottom;dashed=1;strokeWidth=1;perimeterSpacing=0;spacing=2;spacingTop=0;fontSize=10;dashPattern=8 8;" parent="IPgy6yM4qCA0l31l_Qpo-1" vertex="1">
            <mxGeometry x="-2248" y="10" width="1028" height="722" as="geometry" />
          </mxCell>
        </object>
        <object label="Component Diagram for a hockey system&lt;br&gt;&lt;span style=&quot;font-size: x-small ; font-weight: 400&quot;&gt;The component diagram for the Sticks&#39;n&#39;pucks system&lt;/span&gt;" placeholders="1" name="Diagram Name" description="Description" id="ps5Z5ig5ecWwo3LQZfEK-0">
          <mxCell style="text;html=1;resizable=0;points=[];autosize=1;align=left;verticalAlign=top;spacingTop=-4;fontSize=14;fontColor=#404040;fontStyle=1" parent="IPgy6yM4qCA0l31l_Qpo-1" vertex="1">
            <mxGeometry x="-2270" y="760" width="290" height="40" as="geometry" />
          </mxCell>
        </object>
        <mxCell id="TZBD-ZUYAdRBoGNCD-eM-0" value="Level 3: Component Diagram" style="text;strokeColor=none;fillColor=none;html=1;fontSize=24;fontStyle=1;verticalAlign=middle;align=center;" vertex="1" parent="IPgy6yM4qCA0l31l_Qpo-1">
          <mxGeometry x="-1950" y="750" width="700" height="60" as="geometry" />
        </mxCell>
        <object label="&lt;div&gt;&lt;span style=&quot;font-size: 14px&quot;&gt;&lt;b&gt;Games Controller&lt;/b&gt;&lt;/span&gt;&lt;/div&gt;&lt;div&gt;&lt;span style=&quot;font-size: 8px&quot;&gt;[Component: Spring Boot MVC Controller]&lt;/span&gt;&lt;/div&gt;&lt;div&gt;&lt;span style=&quot;font-size: 8px&quot;&gt;&lt;br&gt;&lt;/span&gt;&lt;/div&gt;&lt;div&gt;&lt;font size=&quot;1&quot;&gt;Provides the functionality related to games and game statistics&lt;/font&gt;&lt;/div&gt;" placeholders="1" name="Component Name" technology="e.g. Spring Bean" description="Description" id="L83C8q0s2tNWdTFa3ev6-2">
          <mxCell style="rounded=0;whiteSpace=wrap;html=1;fillColor=#85baf0;fontColor=#000000;strokeColor=#6992BD;resizable=0;" parent="IPgy6yM4qCA0l31l_Qpo-1" vertex="1">
            <mxGeometry x="-1420" y="207" width="180" height="120" as="geometry" />
          </mxCell>
        </object>
        <object label="&lt;b style=&quot;font-size: 12px&quot;&gt;Makes calls to&lt;br&gt;[HTTPS]&lt;/b&gt;" placeholders="1" name="Dependency Operation Name" technology="JDBC" id="z3duaHD6int38HKjdPZ5-1">
          <mxCell style="endArrow=block;html=1;fontSize=10;fontColor=#404040;strokeWidth=1;endFill=1;dashed=1;dashPattern=8 8;strokeColor=#828282;elbow=vertical;exitX=0.978;exitY=0.333;exitDx=0;exitDy=0;entryX=0.75;entryY=0;entryDx=0;entryDy=0;exitPerimeter=0;" edge="1" parent="IPgy6yM4qCA0l31l_Qpo-1" source="99VsMWmBKfu-NgFogZuD-0" target="L83C8q0s2tNWdTFa3ev6-2">
            <mxGeometry x="-0.2697" width="50" height="50" relative="1" as="geometry">
              <mxPoint x="-1703.96" y="39.95999999999998" as="sourcePoint" />
              <mxPoint x="-1407.12" y="633.04" as="targetPoint" />
              <Array as="points">
                <mxPoint x="-1290" y="60" />
              </Array>
              <mxPoint as="offset" />
            </mxGeometry>
          </mxCell>
        </object>
      </root>
    </mxGraphModel>
  </diagram>
</mxfile>
